<?xml version="1.0" encoding="UTF-8"?>
<svg
   version="1.1"
   width="139.06171"
   height="268.34909"
   viewBox="0 0 139.0617 268.34909"
   xmlns="http://www.w3.org/2000/svg">
  <defs>
    <style>
      #path2 {
        fill: #4ABFB5;
        fill-rule: nonzero;
        stroke: #4ABFB5;
        stroke-width: 1.2;
        stroke-linejoin: round;
        stroke-linecap: round;
        stroke-dasharray: 9999;
        stroke-dashoffset: 9999;
        fill-opacity: 0;
        animation: entrance 6s ease-in-out infinite;
      }
      @keyframes entrance {
         0%  { stroke-dashoffset: 9999; fill-opacity: 0; }
        40%  { stroke-dashoffset:    0; fill-opacity: 0; }
        48%  { stroke-dashoffset:    0; fill-opacity: 1; }
        88%  { stroke-dashoffset:    0; fill-opacity: 1; }
        94%  { stroke-dashoffset: 9999; fill-opacity: 0; }
       100%  { stroke-dashoffset: 9999; fill-opacity: 0; }
      }
    </style>
  </defs>
  <g transform="translate(-625.85503,-173.4913)">
    <path
       id="path2"
       d="M 0,0 H -55.615 C -38.434,-12.667 -14.926,-11.283 0,0 m -9.042,126.748 c 1.225,1.733 2.535,3.34 3.573,5.106 2.376,4.047 2.252,8.129 -0.259,12.096 -0.716,1.131 -1.558,2.183 -2.349,3.266 -3.455,4.727 -3.557,12.393 -0.243,17.149 0.753,1.08 1.503,2.163 2.291,3.217 2.12,2.837 2.586,5.998 1.916,9.401 -0.105,0.53 -0.367,0.853 -0.853,1.112 -5.087,2.714 -10.475,4.51 -16.186,5.319 -1.212,0.171 -2.438,0.247 -3.64,0.365 -0.032,-0.133 -0.05,-0.164 -0.041,-0.179 0.224,-0.357 0.461,-0.706 0.675,-1.069 3.064,-5.19 3.218,-10.484 0.424,-15.805 -0.733,-1.397 -1.737,-2.662 -2.696,-3.927 -2.067,-2.728 -2.619,-5.771 -2.078,-9.087 0.352,-2.163 1.455,-3.946 2.806,-5.59 2.933,-3.571 4.304,-7.616 3.797,-12.237 -0.119,-1.079 -0.368,-2.143 -0.568,-3.271 5.185,-0.321 9.729,-2.166 13.431,-5.866 M -42.258,68.742 c 2.194,-0.954 5.943,-1.243 8.474,-0.796 5.68,1.003 10.441,3.776 14.52,7.709 8.299,8.002 12.779,17.823 13.433,29.324 0.29,5.108 -0.567,10.046 -3.033,14.612 -1.242,2.301 -2.894,4.257 -5.038,5.846 -0.193,-0.219 -0.359,-0.4 -0.518,-0.587 -2.795,-3.298 -5.588,-6.598 -8.384,-9.895 -3.747,-4.419 -5.196,-9.493 -4.434,-15.233 0.833,-6.276 -0.676,-11.976 -4.435,-17.056 -2.349,-3.175 -4.778,-6.29 -7.171,-9.432 -1.125,-1.478 -2.247,-2.957 -3.414,-4.492 m -3.767,1.953 c 0.078,0.134 0.129,0.25 0.204,0.349 3.575,4.708 7.181,9.393 10.719,14.128 3.149,4.214 4.354,8.969 3.65,14.184 -0.93,6.887 0.878,12.977 5.316,18.294 2.579,3.089 5.209,6.136 7.815,9.203 0.165,0.195 0.316,0.401 0.508,0.647 -3.207,1.175 -6.375,1.229 -9.566,0.561 -4.637,-0.971 -8.689,-3.187 -12.149,-6.333 -10.196,-9.27 -15.294,-20.761 -14.586,-34.629 0.192,-3.781 1.213,-7.381 3.086,-10.706 1.245,-2.21 2.844,-4.11 5.003,-5.698 m 0.813,109.997 c 0.109,-0.297 0.188,-0.501 0.26,-0.707 1.334,-3.85 1.475,-7.745 -0.163,-11.488 -0.863,-1.974 -2.143,-3.811 -3.474,-5.524 -3.046,-3.922 -2.925,-9.823 -0.337,-13.315 0.784,-1.058 1.602,-2.095 2.311,-3.202 3.324,-5.186 3.57,-10.574 0.799,-16.042 -0.745,-1.469 -1.814,-2.786 -2.814,-4.112 -1.956,-2.594 -2.54,-5.499 -2.114,-8.657 0.075,-0.553 0.227,-1.096 0.378,-1.801 0.255,0.335 0.394,0.532 0.548,0.718 1.65,1.984 3.176,4.091 4.98,5.925 4.743,4.821 10.291,8.319 17.007,9.755 0.281,0.06 0.62,0.341 0.737,0.605 1.648,3.729 1.522,7.386 -0.633,10.884 -0.767,1.244 -1.76,2.347 -2.545,3.582 -3.4,5.35 -3.612,10.863 -0.597,16.43 0.799,1.475 1.928,2.769 2.871,4.169 2.425,3.602 2.677,7.437 0.869,11.312 -0.746,1.598 -1.956,2.981 -2.987,4.439 -0.105,0.148 -0.433,0.212 -0.65,0.198 -4.031,-0.277 -7.974,-1.016 -11.816,-2.277 -0.863,-0.284 -1.721,-0.583 -2.63,-0.892 M 16.791,21.618 h -89.187 c 0.035,-0.157 0.045,-0.281 0.089,-0.39 2.542,-6.244 6.149,-11.782 10.996,-16.489 0.232,-0.226 0.644,-0.377 0.973,-0.377 21.658,-0.028 43.316,-0.04 64.975,-0.027 0.387,0 0.867,0.213 1.148,0.486 2.702,2.627 5.046,5.548 7.03,8.753 1.556,2.514 2.905,5.131 3.976,8.044 M -32.994,63.54 c -9.648,0 -19.296,0.003 -28.944,-0.002 -2.065,-10e-4 -3.176,-1.059 -3.158,-3.103 0.017,-2.01 0.01,-4.033 0.229,-6.027 0.96,-8.716 4.906,-15.888 11.695,-21.381 6.99,-5.657 15.051,-7.962 24.021,-6.916 5.312,0.62 10.206,2.447 14.512,5.584 9.918,7.227 14.266,17.122 13.671,29.285 -0.01,0.195 -0.052,0.393 -0.108,0.581 -0.394,1.323 -1.394,1.977 -3.048,1.978 -9.624,0.003 -19.247,10e-4 -28.87,10e-4 M -50.479,25.828 c -0.057,0.111 -0.067,0.167 -0.099,0.187 -0.231,0.144 -0.467,0.282 -0.702,0.421 -7.015,4.138 -12.123,9.948 -15.312,17.44 -2.355,5.53 -3.015,11.333 -2.768,17.279 0.053,1.274 0.473,2.433 1.195,3.475 1.519,2.191 3.682,3.067 6.285,3.06 3.879,-0.012 7.758,-0.003 11.637,-0.003 0.258,0 0.517,0 0.973,0 -0.279,0.261 -0.393,0.379 -0.518,0.483 -1.873,1.56 -3.401,3.417 -4.622,5.514 -3.826,6.568 -4.611,13.704 -3.782,21.096 0.64,5.706 2.468,11.067 5.001,16.204 0.121,0.247 0.077,0.676 -0.058,0.932 -2.3,4.376 -2.575,8.905 -0.706,13.437 0.744,1.803 1.95,3.458 3.153,5.022 2.381,3.098 3.07,6.494 2.229,10.25 -0.452,2.024 -1.65,3.651 -2.915,5.221 -3.174,3.941 -4.219,8.401 -3.346,13.35 0.471,2.671 1.788,4.934 3.446,7.01 2.154,2.698 3.507,5.639 3.118,9.189 -0.129,1.178 -0.296,2.341 -0.88,3.437 -0.257,-0.118 -0.461,-0.201 -0.656,-0.303 -5.784,-3.015 -10.778,-7.021 -14.904,-12.065 -7.407,-9.055 -11.002,-19.481 -11.004,-31.155 -0.007,-32.08 -0.005,-64.161 0.002,-96.242 0.001,-4.238 0.483,-8.419 1.572,-12.526 0.155,-0.587 0.387,-0.772 1.002,-0.77 7.31,0.024 14.62,0.015 21.931,0.017 0.232,0 0.464,0.025 0.728,0.04 m 43.339,6.79 c -2.324,-2.203 -4.727,-4.243 -7.446,-5.918 -0.39,-0.241 -0.789,-0.466 -1.184,-0.698 0.205,-0.144 0.366,-0.165 0.527,-0.165 10.965,-0.008 21.93,-0.011 32.895,-0.028 0.476,-0.001 0.68,0.127 0.807,0.618 1.139,4.373 1.621,8.802 1.614,13.331 -0.047,31.855 -0.002,63.71 -0.061,95.565 -0.005,3.138 -0.259,6.321 -0.826,9.405 -2.183,11.892 -8.164,21.555 -17.608,29.091 -0.359,0.287 -0.742,0.545 -1.204,0.883 -0.02,-0.372 -0.038,-0.61 -0.044,-0.849 -0.076,-3.005 -0.9,-5.771 -2.646,-8.239 -0.645,-0.912 -1.263,-1.848 -1.963,-2.718 -3.089,-3.841 -2.936,-9.789 -0.327,-13.299 0.74,-0.997 1.481,-1.994 2.19,-3.014 2.807,-4.035 3.331,-8.458 2.19,-13.151 -0.627,-2.582 -2.226,-4.62 -3.739,-6.718 -0.707,-0.979 -1.282,-2.059 -1.842,-3.132 -0.139,-0.266 -0.108,-0.752 0.047,-1.019 3.16,-5.432 4.236,-11.356 4.086,-17.538 C -1.815,99.227 -3.186,93.683 -5.468,88.36 -9.029,80.053 -14.349,73.183 -21.99,68.216 c -0.152,-0.098 -0.281,-0.23 -0.582,-0.48 0.49,0 0.778,0 1.067,0 5.967,-0.002 11.934,0.021 17.901,-0.014 3.634,-0.021 6.582,-2.879 6.785,-6.505 0,0 1.282,-17.598 -10.321,-28.599 M 24.354,88.183 C 24.353,71.534 24.438,54.884 24.325,38.236 24.243,26.196 20.256,15.465 12.689,6.1 6.33,-1.769 -1.676,-7.325 -11.274,-10.551 c -5.049,-1.697 -10.228,-2.539 -15.578,-2.6 -6.487,-0.073 -12.807,0.76 -18.848,3.108 -16.333,6.351 -27.133,17.91 -32.234,34.697 -1.327,4.368 -1.95,8.875 -1.953,13.44 -0.017,33.075 -0.058,66.15 0.023,99.224 0.022,8.913 2.525,17.244 7.044,24.932 6.118,10.408 14.812,17.864 26.035,22.322 6.256,2.484 12.764,3.605 19.516,3.531 11.75,-0.13 22.276,-3.775 31.49,-10.978 10.148,-7.934 16.535,-18.289 19.114,-30.944 0.717,-3.518 1.015,-7.076 1.017,-10.66 0.008,-15.779 0.003,-31.559 0.002,-47.338"
       transform="matrix(1.3333333,0,0,-1.3333333,732.40507,424.29987)" />
  </g>
</svg>
